<svg width="16" height="16" viewBox="0 0 16 16" fill="none" xmlns="http://www.w3.org/2000/svg">
<path d="M8.08803 3.3535C8.74395 3.3535 9.56615 2.91006 10.0558 2.31881C10.4992 1.78299 10.8226 1.03469 10.8226 0.286387C10.8226 0.184766 10.8133 0.0831445 10.7948 0C10.065 0.0277148 9.18738 0.489629 8.6608 1.10859C8.24508 1.57975 7.86631 2.31881 7.86631 3.07635C7.86631 3.18721 7.88479 3.29807 7.89402 3.33502C7.94021 3.34426 8.01412 3.3535 8.08803 3.3535ZM5.77846 14.5318C6.67457 14.5318 7.07182 13.9313 8.18965 13.9313C9.32596 13.9313 9.57539 14.5133 10.5731 14.5133C11.5524 14.5133 12.2083 13.608 12.8273 12.7211C13.5201 11.7049 13.8065 10.7072 13.825 10.661C13.7603 10.6425 11.885 9.87572 11.885 7.7232C11.885 5.85707 13.3631 5.01639 13.4462 4.95172C12.467 3.5475 10.9796 3.51055 10.5731 3.51055C9.47377 3.51055 8.57766 4.1757 8.01412 4.1757C7.40439 4.1757 6.60066 3.5475 5.64912 3.5475C3.83842 3.5475 2 5.0441 2 7.87102C2 9.62629 2.68363 11.4832 3.52432 12.6842C4.2449 13.7004 4.87311 14.5318 5.77846 14.5318Z" fill="black"/>
</svg>
