<svg width="16" height="16" viewBox="0 0 16 16" fill="none" xmlns="http://www.w3.org/2000/svg">
<path d="M4.00004 7.33332V9.99999M12 5.99999V8.66665M11.3334 2.66666C12.9658 2.66666 13.8488 2.9165 14.2881 3.11028C14.3466 3.13609 14.3759 3.149 14.4603 3.22957C14.5109 3.27787 14.6033 3.41959 14.6271 3.48538C14.6667 3.59515 14.6667 3.65515 14.6667 3.77515V10.9408C14.6667 11.5466 14.6667 11.8495 14.5759 12.0052C14.4834 12.1636 14.3943 12.2372 14.2213 12.2981C14.0513 12.358 13.708 12.292 13.0215 12.1601C12.541 12.0678 11.9711 12 11.3334 12C9.33337 12 7.33337 13.3333 4.66671 13.3333C3.03424 13.3333 2.15128 13.0835 1.71196 12.8897C1.65346 12.8639 1.6242 12.851 1.53977 12.7704C1.48916 12.7221 1.39679 12.5804 1.37302 12.5146C1.33337 12.4048 1.33337 12.3448 1.33337 12.2248L1.33337 5.05923C1.33337 4.45338 1.33337 4.15046 1.42423 3.99475C1.51664 3.83637 1.60577 3.76273 1.77875 3.70186C1.9488 3.64202 2.29206 3.70798 2.97859 3.83989C3.45912 3.93222 4.02903 3.99999 4.66671 3.99999C6.66671 3.99999 8.66671 2.66666 11.3334 2.66666ZM9.66671 7.99999C9.66671 8.92046 8.92051 9.66665 8.00004 9.66665C7.07957 9.66665 6.33337 8.92046 6.33337 7.99999C6.33337 7.07951 7.07957 6.33332 8.00004 6.33332C8.92051 6.33332 9.66671 7.07951 9.66671 7.99999Z" stroke="#090E13" stroke-width="1.4" stroke-linecap="round" stroke-linejoin="round"/>
</svg>
