<svg width="16" height="16" viewBox="0 0 16 16" fill="none" xmlns="http://www.w3.org/2000/svg">
<path d="M9.59396 12.0099C9.87984 13.0768 9.24668 14.1735 8.17975 14.4593C7.11281 14.7452 6.01614 14.1121 5.73026 13.0451M7.26098 3.82723C7.46379 3.46237 7.53059 3.02137 7.41402 2.5863C7.17578 1.69719 6.26189 1.16955 5.37278 1.40779C4.48367 1.64603 3.95603 2.55992 4.19427 3.44903C4.31084 3.8841 4.5892 4.23261 4.94726 4.44719M10.8239 6.29686C10.5859 5.40877 9.95066 4.66613 9.05781 4.23231C8.16496 3.79849 7.08768 3.70902 6.06296 3.98359C5.03824 4.25816 4.15003 4.87428 3.59371 5.69641C3.03739 6.51853 2.85853 7.47932 3.0965 8.36741C3.49021 9.83678 3.41376 11.009 3.16513 11.8998C2.88175 12.915 2.74006 13.4226 2.77834 13.5246C2.82213 13.6412 2.85381 13.6732 2.96997 13.7182C3.0715 13.7575 3.49801 13.6433 4.35104 13.4147L12.2611 11.2952C13.1141 11.0666 13.5406 10.9524 13.6089 10.8675C13.687 10.7705 13.6984 10.7269 13.678 10.604C13.6602 10.4966 13.2837 10.1278 12.5307 9.39031C11.87 8.7432 11.2176 7.76623 10.8239 6.29686Z" stroke="#5A6A72" stroke-width="1.4" stroke-linecap="round" stroke-linejoin="round"/>
</svg>
