<svg width="16" height="16" viewBox="0 0 16 16" fill="none" xmlns="http://www.w3.org/2000/svg">
<path d="M8.66671 3.33333C8.66671 4.06971 7.02508 4.66667 5.00004 4.66667C2.975 4.66667 1.33337 4.06971 1.33337 3.33333M8.66671 3.33333C8.66671 2.59695 7.02508 2 5.00004 2C2.975 2 1.33337 2.59695 1.33337 3.33333M8.66671 3.33333V6.30477C7.85237 6.54932 7.33337 6.91929 7.33337 7.33333M1.33337 3.33333V11.3333C1.33337 12.0697 2.975 12.6667 5.00004 12.6667C5.88646 12.6667 6.69941 12.5523 7.33337 12.3619V7.33333M1.33337 6C1.33337 6.73638 2.975 7.33333 5.00004 7.33333C5.88646 7.33333 6.69941 7.21895 7.33337 7.02857M1.33337 8.66667C1.33337 9.40305 2.975 10 5.00004 10C5.88646 10 6.69941 9.88562 7.33337 9.69523M14.6667 7.33333C14.6667 8.06971 13.0251 8.66667 11 8.66667C8.975 8.66667 7.33337 8.06971 7.33337 7.33333M14.6667 7.33333C14.6667 6.59695 13.0251 6 11 6C8.975 6 7.33337 6.59695 7.33337 7.33333M14.6667 7.33333V12.6667C14.6667 13.403 13.0251 14 11 14C8.975 14 7.33337 13.403 7.33337 12.6667V7.33333M14.6667 10C14.6667 10.7364 13.0251 11.3333 11 11.3333C8.975 11.3333 7.33337 10.7364 7.33337 10" stroke="#182734" stroke-width="1.4" stroke-linecap="round" stroke-linejoin="round"/>
</svg>
