<svg width="16" height="16" viewBox="0 0 16 16" fill="none" xmlns="http://www.w3.org/2000/svg">
<g clip-path="url(#clip0_122_29200)">
<path d="M16 8C16.0009 3.74402 12.6695 0.232351 8.41935 0.00925814C4.16922 -0.213835 0.488434 2.92975 0.0437827 7.16245C-0.400869 11.3951 2.54629 15.235 6.75 15.9V10.31H4.75V8H6.75V6.24C6.65906 5.40926 6.94127 4.58097 7.5205 3.97856C8.09974 3.37616 8.91633 3.06169 9.75 3.12C10.3498 3.12821 10.9482 3.1817 11.54 3.28V5.28H10.54C10.1998 5.24104 9.85976 5.35439 9.61098 5.58968C9.36219 5.82497 9.23007 6.15815 9.25 6.5V8H11.47L11.11 10.31H9.25V15.9C13.1367 15.2851 15.9991 11.935 16 8Z" fill="#1877F2"/>
<path d="M11.11 10.31L11.47 8H9.25V6.5C9.22012 6.15117 9.34939 5.8075 9.60176 5.56483C9.85414 5.32217 10.2026 5.20647 10.55 5.25H11.55V3.25C10.9582 3.1517 10.3598 3.09821 9.76 3.09C8.92633 3.03169 8.10974 3.34616 7.53051 3.94856C6.95127 4.55097 6.66906 5.37926 6.76 6.21V8H4.76V10.31H6.76V15.9C7.16977 15.9683 7.58459 16.0017 8 16.0001C8.41875 16.0023 8.83694 15.9688 9.25 15.9V10.31H11.11Z" fill="white"/>
</g>
<defs>
<clipPath id="clip0_122_29200">
<rect width="16" height="16" fill="white"/>
</clipPath>
</defs>
</svg>
