<svg width="16" height="16" viewBox="0 0 16 16" fill="none" xmlns="http://www.w3.org/2000/svg">
<g clip-path="url(#clip0_122_29201)">
<path d="M15.68 8.18182C15.68 7.61454 15.6291 7.06909 15.5345 6.54545H8V9.64H12.3055C12.12 10.64 11.5564 11.4873 10.7091 12.0545V14.0618H13.2945C14.8073 12.6691 15.68 10.6182 15.68 8.18182Z" fill="#4285F4"/>
<path d="M8 16C10.16 16 11.9709 15.2836 13.2945 14.0618L10.7091 12.0545C9.99272 12.5345 9.07636 12.8182 8 12.8182C5.91636 12.8182 4.15272 11.4109 3.52363 9.52H0.850906V11.5927C2.16727 14.2073 4.87272 16 8 16Z" fill="#34A853"/>
<path d="M3.52364 9.52C3.36364 9.04 3.27273 8.52727 3.27273 8C3.27273 7.47273 3.36364 6.96 3.52364 6.48V4.40727H0.850909C0.309091 5.48727 0 6.70909 0 8C0 9.29091 0.309091 10.5127 0.850909 11.5927L3.52364 9.52Z" fill="#FBBC05"/>
<path d="M8 3.18182C9.17454 3.18182 10.2291 3.58545 11.0582 4.37818L13.3527 2.08364C11.9673 0.792727 10.1564 0 8 0C4.87272 0 2.16727 1.79273 0.850906 4.40727L3.52363 6.48C4.15272 4.58909 5.91636 3.18182 8 3.18182Z" fill="#EA4335"/>
</g>
<defs>
<clipPath id="clip0_122_29201">
<rect width="16" height="16" fill="white"/>
</clipPath>
</defs>
</svg>
