<svg width="16" height="16" viewBox="0 0 16 16" fill="none" xmlns="http://www.w3.org/2000/svg">
<g clip-path="url(#clip0_1369_1309)">
<path fill-rule="evenodd" clip-rule="evenodd" d="M11.4887 11.5298C10.3032 11.5298 9.34225 10.5711 9.34225 9.38857C9.34225 8.20588 10.3032 7.24716 11.4887 7.24716C12.6742 7.24716 13.6351 8.20588 13.6351 9.38857C13.6351 10.5711 12.6742 11.5298 11.4887 11.5298ZM12.1313 5.26601V3.36109C12.6297 3.12624 12.9788 2.62324 12.9788 2.0395V1.99553C12.9788 1.18988 12.3181 0.530732 11.5105 0.530732H11.4667C10.6591 0.530732 9.99841 1.18988 9.99841 1.99553V2.0395C9.99841 2.62324 10.3475 3.12644 10.8459 3.3613V5.26601C10.1039 5.38046 9.42586 5.68578 8.8667 6.13515L3.62417 2.06662C3.65877 1.9341 3.68308 1.79766 3.68328 1.65425C3.68411 0.741956 2.94391 0.00123389 2.02907 1.07035e-06C1.11464 -0.00102628 0.371972 0.737641 0.370942 1.65014C0.369912 2.56263 1.11011 3.30335 2.02495 3.30438C2.32296 3.30479 2.59894 3.22034 2.84073 3.08309L7.99758 7.08545C7.55911 7.74583 7.30208 8.53689 7.30208 9.38857C7.30208 10.2801 7.58444 11.1049 8.06143 11.7831L6.4933 13.3478C6.36932 13.3106 6.2408 13.2847 6.10446 13.2847C5.35294 13.2847 4.74353 13.8925 4.74353 14.6423C4.74353 15.3922 5.35294 16 6.10446 16C6.85619 16 7.4654 15.3922 7.4654 14.6423C7.4654 14.5066 7.43945 14.3782 7.40217 14.2545L8.95341 12.7069C9.65756 13.243 10.5345 13.5652 11.4887 13.5652C13.8009 13.5652 15.6751 11.6952 15.6751 9.38857C15.6751 7.30037 14.1374 5.57524 12.1313 5.26601Z" fill="#FF7A59"/>
</g>
<defs>
<clipPath id="clip0_1369_1309">
<rect width="16" height="16" fill="white"/>
</clipPath>
</defs>
</svg>
