<svg width="16" height="16" viewBox="0 0 16 16" fill="none" xmlns="http://www.w3.org/2000/svg">
<g clip-path="url(#clip0_514_4833)">
<g clip-path="url(#clip1_514_4833)">
<path d="M7.99999 1.44141C10.1362 1.44141 10.389 1.44967 11.2328 1.48809C12.0127 1.52366 12.4363 1.65386 12.7183 1.76342C13.0662 1.89152 13.3809 2.09608 13.6392 2.36202C13.9052 2.62033 14.1097 2.93504 14.2378 3.28295C14.3474 3.56494 14.4776 3.98857 14.5132 4.7685C14.5516 5.61226 14.5598 5.86504 14.5598 8.00127C14.5598 10.1375 14.5516 10.3903 14.5132 11.234C14.4776 12.014 14.3474 12.4376 14.2378 12.7196C14.1046 13.0645 13.9007 13.3778 13.6392 13.6393C13.3778 13.9007 13.0645 14.1046 12.7196 14.2379C12.4376 14.3474 12.014 14.4776 11.234 14.5132C10.3906 14.5516 10.1375 14.5599 8.00126 14.5599C5.86503 14.5599 5.61194 14.5516 4.76849 14.5132C3.98856 14.4776 3.56494 14.3474 3.28294 14.2379C2.93504 14.1098 2.62033 13.9052 2.36202 13.6393C2.09608 13.3809 1.89152 13.0662 1.76342 12.7183C1.65386 12.4363 1.52366 12.0127 1.48809 11.2328C1.44967 10.389 1.44141 10.1362 1.44141 8C1.44141 5.86377 1.44967 5.61099 1.48809 4.76723C1.52366 3.9873 1.65386 3.56367 1.76342 3.28168C1.89152 2.93377 2.09608 2.61906 2.36202 2.36075C2.62033 2.09481 2.93504 1.89025 3.28294 1.76215C3.56494 1.65259 3.98856 1.52239 4.76849 1.48682C5.61225 1.4484 5.86503 1.44014 8.00126 1.44014L7.99999 1.44141ZM8.00126 -0.00126886C5.82851 -0.00126886 5.55604 0.00794041 4.70276 0.0470004C3.84947 0.0860605 3.26834 0.222294 2.76024 0.419817C2.22629 0.620816 1.74254 0.93573 1.34265 1.34265C0.935727 1.74255 0.620814 2.22629 0.419815 2.76024C0.222293 3.26834 0.0870117 3.85075 0.0482692 4.70213C0.00952682 5.55351 0 5.82725 0 8C0 10.1728 0.00920926 10.4452 0.0482692 11.2985C0.0873292 12.1518 0.222293 12.7317 0.419815 13.2398C0.620896 13.7735 0.935804 14.257 1.34265 14.6567C1.74241 15.0639 2.22619 15.3789 2.76024 15.5799C3.26834 15.7777 3.85074 15.913 4.70212 15.9517C5.5535 15.9905 5.82788 16 8.00063 16C10.1734 16 10.4458 15.9908 11.2991 15.9517C12.1524 15.9127 12.7316 15.7777 13.2397 15.5799C13.7714 15.3745 14.2542 15.0602 14.6572 14.6572C15.0602 14.2542 15.3745 13.7714 15.5799 13.2398C15.7777 12.7317 15.913 12.1493 15.9517 11.2979C15.9905 10.4465 16 10.1721 16 7.99937C16 5.82661 15.9908 5.55415 15.9517 4.70086C15.9127 3.84757 15.7777 3.26834 15.5799 2.76024C15.379 2.22648 15.0642 1.74293 14.6573 1.34329C14.2575 0.936135 13.7738 0.621002 13.2397 0.419817C12.7316 0.222294 12.1492 0.0870131 11.2979 0.0482707C10.4465 0.00952821 10.1727 1.37987e-06 7.99999 1.37987e-06L8.00126 -0.00126886Z" fill="#182734"/>
<path d="M8 3.89203C7.18752 3.89203 6.39329 4.13296 5.71774 4.58435C5.04218 5.03574 4.51565 5.67732 4.20473 6.42795C3.89381 7.17859 3.81246 8.00456 3.97096 8.80143C4.12947 9.5983 4.52072 10.3303 5.09523 10.9048C5.66974 11.4793 6.40171 11.8705 7.19858 12.029C7.99544 12.1876 8.82142 12.1062 9.57205 11.7953C10.3227 11.4844 10.9643 10.9578 11.4157 10.2823C11.867 9.60672 12.108 8.81249 12.108 8.00001C12.108 7.46053 12.0018 6.92632 11.7954 6.4279C11.5889 5.92948 11.2863 5.47661 10.9049 5.09514C10.5234 4.71367 10.0705 4.41108 9.5721 4.20465C9.07368 3.99822 8.53948 3.89199 8 3.89203ZM8 10.6675C7.47242 10.6675 6.95668 10.5111 6.51801 10.218C6.07934 9.92485 5.73744 9.50824 5.53554 9.02082C5.33364 8.53339 5.28082 7.99705 5.38374 7.4796C5.48667 6.96215 5.74073 6.48685 6.11378 6.11379C6.48684 5.74073 6.96215 5.48667 7.4796 5.38375C7.99704 5.28082 8.53339 5.33365 9.02081 5.53554C9.50824 5.73744 9.92485 6.07934 10.218 6.51801C10.5111 6.95668 10.6675 7.47242 10.6675 8.00001C10.6675 8.70747 10.3865 9.38597 9.88622 9.88622C9.38596 10.3865 8.70747 10.6675 8 10.6675Z" fill="#182734"/>
<path d="M12.2705 4.68943C12.8007 4.68943 13.2305 4.25963 13.2305 3.72944C13.2305 3.19926 12.8007 2.76945 12.2705 2.76945C11.7403 2.76945 11.3105 3.19926 11.3105 3.72944C11.3105 4.25963 11.7403 4.68943 12.2705 4.68943Z" fill="#182734"/>
</g>
</g>
<defs>
<clipPath id="clip0_514_4833">
<rect width="16" height="16" fill="white"/>
</clipPath>
<clipPath id="clip1_514_4833">
<rect width="16" height="16" fill="white"/>
</clipPath>
</defs>
</svg>
