<svg width="30" height="24" viewBox="0 0 30 24" fill="none" xmlns="http://www.w3.org/2000/svg">
<g clip-path="url(#clip0_333_3985)">
<path d="M12.0081 11.9983L14.331 14.3194C13.7394 14.9173 12.9157 15.2834 12.0081 15.2834C10.1961 15.2834 8.72367 13.8122 8.72367 12.0017C8.72367 10.1912 10.1961 8.71659 12.0081 8.71659C12.9157 8.71659 13.7394 9.08607 14.331 9.67726L12.0081 11.9983ZM23.2161 7.6753L18.8895 11.9983C18.8895 13.8962 18.1197 15.616 16.8758 16.8621C15.6286 18.105 13.9074 18.8742 12.0081 18.8742C8.20933 18.8742 5.12999 15.7973 5.12999 11.9983C5.12999 8.1993 8.20933 5.12582 12.0081 5.12582C13.9074 5.12582 15.6286 5.89503 16.8758 7.13786L20.4998 3.51351C18.3281 1.3436 15.3261 0 12.0081 0C5.37539 0 0 5.37103 0 11.9983C0 18.6256 5.37539 24 12.0081 24C15.3261 24 18.3281 22.6564 20.4998 20.4865C21.6764 19.3108 22.6076 17.8967 23.2161 16.3213C23.7338 14.9811 24.0195 13.5233 24.0195 11.9983C24.0195 10.4733 23.7338 9.01554 23.2161 7.6753Z" fill="#02157B"/>
<path d="M23.1217 0.896851L20.4995 3.51351L16.8756 7.13786L14.3308 9.67726L12.0078 11.9983L14.3308 14.3194L16.8756 16.8621C18.1194 15.616 18.8893 13.8962 18.8893 11.9983L23.2158 7.6753L29.9997 0.896851H23.1217ZM29.9997 23.1031H23.1217L20.4995 20.4865C21.6761 19.3108 22.6073 17.8967 23.2158 16.3213L29.9997 23.1031Z" fill="#FF5D53"/>
</g>
<defs>
<clipPath id="clip0_333_3985">
<rect width="30" height="24" fill="white"/>
</clipPath>
</defs>
</svg>
