<svg width="14" height="4" viewBox="0 0 14 4" fill="none" xmlns="http://www.w3.org/2000/svg">
<path d="M6.99996 2.66671C7.36815 2.66671 7.66663 2.36823 7.66663 2.00004C7.66663 1.63185 7.36815 1.33337 6.99996 1.33337C6.63177 1.33337 6.33329 1.63185 6.33329 2.00004C6.33329 2.36823 6.63177 2.66671 6.99996 2.66671Z" stroke="#182734" stroke-width="1.4" stroke-linecap="round" stroke-linejoin="round"/>
<path d="M11.6666 2.66671C12.0348 2.66671 12.3333 2.36823 12.3333 2.00004C12.3333 1.63185 12.0348 1.33337 11.6666 1.33337C11.2984 1.33337 11 1.63185 11 2.00004C11 2.36823 11.2984 2.66671 11.6666 2.66671Z" stroke="#182734" stroke-width="1.4" stroke-linecap="round" stroke-linejoin="round"/>
<path d="M2.33329 2.66671C2.70148 2.66671 2.99996 2.36823 2.99996 2.00004C2.99996 1.63185 2.70148 1.33337 2.33329 1.33337C1.9651 1.33337 1.66663 1.63185 1.66663 2.00004C1.66663 2.36823 1.9651 2.66671 2.33329 2.66671Z" stroke="#182734" stroke-width="1.4" stroke-linecap="round" stroke-linejoin="round"/>
</svg>
