<svg width="16" height="16" viewBox="0 0 16 16" fill="none" xmlns="http://www.w3.org/2000/svg">
<g clip-path="url(#clip0_1930_584)">
<path d="M7.99999 10.0001L5.99999 8.00008M7.99999 10.0001C8.93122 9.64591 9.82458 9.19923 10.6667 8.66675M7.99999 10.0001V13.3334C7.99999 13.3334 10.02 12.9667 10.6667 12.0001C11.3867 10.9201 10.6667 8.66675 10.6667 8.66675M5.99999 8.00008C6.35475 7.0797 6.80146 6.19746 7.33332 5.36675C8.11011 4.12474 9.19174 3.10212 10.4753 2.39614C11.7589 1.69017 13.2018 1.32433 14.6667 1.33342C14.6667 3.14675 14.1467 6.33342 10.6667 8.66675M5.99999 8.00008H2.66666C2.66666 8.00008 3.03332 5.98008 3.99999 5.33342C5.07999 4.61342 7.33332 5.33342 7.33332 5.33342M2.99999 11.0001C1.99999 11.8401 1.66666 14.3334 1.66666 14.3334C1.66666 14.3334 4.15999 14.0001 4.99999 13.0001C5.47332 12.4401 5.46666 11.5801 4.93999 11.0601C4.68086 10.8128 4.33952 10.6698 3.98147 10.6588C3.62343 10.6477 3.27391 10.7692 2.99999 11.0001Z" stroke="#5A6A72" stroke-width="1.4" stroke-linecap="round" stroke-linejoin="round"/>
</g>
<defs>
<clipPath id="clip0_1930_584">
<rect width="16" height="16" fill="white"/>
</clipPath>
</defs>
</svg>
