<svg width="16" height="16" viewBox="0 0 16 16" fill="none" xmlns="http://www.w3.org/2000/svg">
<path fill-rule="evenodd" clip-rule="evenodd" d="M4.51061 8.30668C4.42712 8.29375 4.34305 8.28669 4.25897 8.28552C4.06966 8.28316 3.98911 8.35254 3.9897 8.35254C3.93384 8.39193 3.9068 8.45072 3.9068 8.53186C3.9068 8.5836 3.91621 8.62417 3.93443 8.65239C3.94678 8.6712 3.95148 8.67826 3.98793 8.70765C3.98793 8.70765 4.07083 8.7735 4.25956 8.76233C4.39243 8.7541 4.51002 8.72882 4.51002 8.72882V8.30727L4.51061 8.30668Z" fill="#17A0DB"/>
<path fill-rule="evenodd" clip-rule="evenodd" d="M10.0589 7.7552C9.93664 7.7552 9.85021 7.79694 9.79318 7.88396C9.73615 7.97156 9.70676 8.0962 9.70676 8.25494C9.70676 8.41368 9.73557 8.5395 9.79318 8.62769C9.85021 8.71529 9.93723 8.75762 10.0589 8.75762C10.1806 8.75762 10.2682 8.71471 10.3258 8.6271C10.3841 8.53833 10.4135 8.4131 10.4135 8.25435C10.4135 8.09561 10.3841 7.97097 10.3258 7.88396C10.2682 7.79753 10.1812 7.7552 10.0589 7.7552Z" fill="#17A0DB"/>
<path fill-rule="evenodd" clip-rule="evenodd" d="M6.33321 7.74815C6.21151 7.74815 6.12508 7.79577 6.06805 7.88278C6.03043 7.93981 6.00573 8.0133 5.9928 8.10149H6.65422C6.64775 8.01624 6.63129 7.9404 6.59308 7.88278C6.53546 7.79577 6.45491 7.74815 6.33321 7.74815Z" fill="#17A0DB"/>
<path fill-rule="evenodd" clip-rule="evenodd" d="M13.7588 7.74815C13.6371 7.74815 13.5507 7.79577 13.4937 7.88278C13.4554 7.93981 13.4313 8.0133 13.4184 8.10149H14.0798C14.0734 8.01624 14.0569 7.9404 14.0187 7.88278C13.9611 7.79577 13.8805 7.74815 13.7588 7.74815Z" fill="#17A0DB"/>
<path fill-rule="evenodd" clip-rule="evenodd" d="M12.5488 4.51687C12.0685 4.51687 11.594 4.61799 11.1554 4.81377C10.6616 3.93775 9.7444 3.34982 8.68612 3.34982C7.89241 3.34982 7.17395 3.68259 6.65775 4.21996V4.2229C6.09392 3.47917 5.19439 3 4.18902 3C2.47226 3 1.07886 4.38752 1.07886 6.10428C1.07886 6.52877 1.16528 6.94914 1.33461 7.33894C0.53737 7.80929 0 8.67943 0 9.67892C0 11.1664 1.1935 12.3775 2.66921 12.3775C2.85383 12.3775 3.03785 12.3587 3.21834 12.3205C3.62402 13.4199 4.67642 14.2019 5.91695 14.2019C7.15749 14.2019 8.12464 13.4787 8.56265 12.4498C8.90718 12.618 9.28522 12.7044 9.66796 12.7038C10.6087 12.7038 11.4347 12.1806 11.8668 11.4104C12.0891 11.4545 12.316 11.478 12.5488 11.478C14.4537 11.478 16 9.91997 16 7.99743C16 6.07489 14.4537 4.51687 12.5488 4.51687ZM3.43941 8.55302C3.43941 8.83406 3.23539 9.00867 2.90733 9.00867C2.74623 9.00867 2.5922 8.98339 2.42875 8.89697C2.39818 8.87933 2.3676 8.86345 2.33762 8.8417C2.33468 8.837 2.32057 8.8317 2.33056 8.80525L2.39524 8.62475C2.40523 8.59418 2.42875 8.60417 2.43816 8.61005C2.45579 8.62064 2.46932 8.63063 2.49225 8.64415C2.68332 8.76468 2.8597 8.76586 2.91497 8.76586C3.05725 8.76586 3.14603 8.69001 3.14603 8.5883V8.58301C3.14603 8.47248 3.00963 8.43015 2.85206 8.38194L2.81737 8.37135C2.60101 8.30962 2.36937 8.22025 2.36937 7.94628V7.94099C2.36937 7.68112 2.57926 7.49945 2.87969 7.49945H2.91262C3.089 7.49945 3.2595 7.5506 3.38296 7.62585C3.39414 7.63232 3.40531 7.64526 3.39884 7.66289C3.39296 7.67936 3.33828 7.82634 3.33181 7.8428C3.32006 7.87337 3.28831 7.8528 3.28831 7.8528C3.18072 7.79342 3.01257 7.74638 2.87146 7.74638C2.74447 7.74638 2.66216 7.81399 2.66216 7.90571V7.911C2.66216 8.01801 2.80267 8.06386 2.96553 8.11678L2.99375 8.1256C3.20894 8.19321 3.43941 8.28787 3.43941 8.54773V8.55302ZM4.78518 8.9146C4.78518 8.9146 4.75108 8.92401 4.71992 8.93106C4.64232 8.94811 4.56471 8.96281 4.48651 8.97634C4.3948 8.99162 4.30014 8.99985 4.20489 8.99985C4.10965 8.99985 4.03204 8.99162 3.95914 8.97457C3.88565 8.95811 3.82215 8.93048 3.77041 8.89285C3.71867 8.85522 3.67693 8.80525 3.6493 8.74763C3.62108 8.68942 3.60697 8.61829 3.60697 8.53597C3.60697 8.45366 3.62343 8.38311 3.65635 8.32197C3.68869 8.26141 3.73514 8.20908 3.79099 8.1691C3.84684 8.12912 3.9121 8.09855 3.98442 8.07915C4.05615 8.05975 4.13317 8.04975 4.21254 8.04975C4.27074 8.04975 4.31954 8.05093 4.35717 8.05387L4.35834 8.05622C4.35834 8.05622 4.43184 8.06269 4.51121 8.07445V8.03506C4.51121 7.91159 4.48534 7.8528 4.43478 7.81399C4.38304 7.7746 4.30543 7.75402 4.20548 7.75402C4.20548 7.75402 3.97972 7.75108 3.80157 7.84809C3.79334 7.8528 3.78629 7.85574 3.78629 7.85574C3.78629 7.85574 3.76394 7.86338 3.75571 7.84045L3.68987 7.66407C3.67987 7.63879 3.6981 7.62703 3.6981 7.62703C3.78158 7.56177 3.98383 7.52238 3.98383 7.52238C4.05086 7.50886 4.16315 7.49945 4.23253 7.49945C4.41773 7.49945 4.56059 7.54237 4.65819 7.62762C4.75638 7.71287 4.80576 7.85103 4.80576 8.03682V8.88344C4.80576 8.88344 4.80811 8.90814 4.78518 8.91401V8.9146ZM5.40722 8.94459C5.40722 8.95987 5.39605 8.97281 5.38076 8.97281H5.135C5.11913 8.97281 5.10855 8.96046 5.10855 8.94459V6.96502C5.10855 6.94973 5.11972 6.9368 5.135 6.9368H5.38076C5.39605 6.9368 5.40722 6.94914 5.40722 6.96502V8.94459ZM6.94407 8.30668C6.94172 8.33079 6.91703 8.33079 6.91703 8.33079H5.98809C5.99339 8.4713 6.02749 8.57066 6.09569 8.63886C6.16271 8.7053 6.26971 8.74822 6.41317 8.74822C6.63364 8.74881 6.72771 8.70412 6.79415 8.67943C6.79415 8.67943 6.82002 8.67002 6.82884 8.6953L6.88939 8.86522C6.90174 8.89403 6.89175 8.90402 6.88175 8.90931C6.82413 8.94165 6.68303 9.00162 6.41493 9.0022C6.28441 9.0022 6.17153 8.98398 6.07805 8.94753C5.98398 8.91108 5.90578 8.85934 5.84464 8.7929C5.78408 8.72705 5.73881 8.64768 5.71059 8.55714C5.68237 8.46719 5.66826 8.36783 5.66826 8.26082C5.66826 8.15382 5.68178 8.05622 5.70883 7.96509C5.73587 7.87279 5.7782 7.79224 5.83464 7.72404C5.89109 7.65584 5.96281 7.60116 6.04806 7.56118C6.13331 7.5212 6.23855 7.5018 6.35438 7.5018C6.44551 7.5018 6.53605 7.52003 6.62012 7.55589C6.67833 7.58058 6.73653 7.62585 6.7965 7.68994C6.83413 7.73051 6.89175 7.81928 6.91526 7.90689H6.91585C6.97523 8.1156 6.94466 8.2961 6.94348 8.30609L6.94407 8.30668ZM7.71015 9.00808C7.54906 9.00808 7.39502 8.9828 7.23157 8.89638C7.201 8.87874 7.17043 8.86286 7.14044 8.84111C7.13691 8.83641 7.12339 8.83112 7.13339 8.80466H7.1328L7.19747 8.62416C7.20688 8.59477 7.23451 8.60535 7.24039 8.60947C7.25803 8.62064 7.27155 8.63004 7.29448 8.64357C7.48497 8.76409 7.66194 8.76527 7.7172 8.76527C7.85948 8.76527 7.94826 8.68942 7.94826 8.58771V8.58242C7.94826 8.47189 7.81245 8.42956 7.6543 8.38135L7.61961 8.37077C7.40325 8.30903 7.1716 8.21967 7.1716 7.94569V7.9404C7.1716 7.68053 7.38149 7.49886 7.68193 7.49886H7.71485C7.89123 7.49886 8.06173 7.55001 8.1852 7.62527C8.19637 7.63173 8.20754 7.64467 8.20107 7.66231C8.19578 7.67877 8.1411 7.82575 8.13464 7.84221C8.12288 7.87279 8.09113 7.85221 8.09113 7.85221C7.98295 7.79283 7.81539 7.74579 7.67428 7.74579C7.54729 7.74579 7.46498 7.81341 7.46498 7.90512V7.91041C7.46498 8.01742 7.6055 8.06328 7.76835 8.11619L7.79658 8.1256C8.01235 8.19321 8.24223 8.28787 8.24223 8.54773V8.55302C8.24223 8.83406 8.03822 9.00867 7.71015 9.00867V9.00808ZM9.33343 7.75402C9.32814 7.78166 9.30227 7.78107 9.30227 7.78107H8.99655L8.78783 8.9634C8.76608 9.08569 8.73844 9.19034 8.70611 9.27501C8.67377 9.36026 8.63967 9.42258 8.58558 9.48255C8.53561 9.53781 8.47917 9.57897 8.4139 9.60248C8.34923 9.626 8.27162 9.63776 8.18637 9.63776C8.14581 9.63776 8.1023 9.63717 8.05056 9.62483C8.01352 9.61601 7.99294 9.60954 7.9659 9.60013C7.95414 9.59602 7.94532 9.58132 7.95179 9.56309C7.95826 9.54428 8.01293 9.39436 8.02058 9.37437C8.02998 9.35026 8.05409 9.35967 8.05409 9.35967C8.07055 9.36672 8.08231 9.37143 8.10406 9.37613C8.1264 9.38083 8.1558 9.38436 8.17814 9.38436C8.21871 9.38436 8.25516 9.37966 8.2875 9.36849C8.3263 9.35555 8.34864 9.33321 8.37216 9.30323C8.39685 9.27207 8.41626 9.22856 8.43683 9.17153C8.45741 9.11332 8.47622 9.0363 8.49269 8.94282L8.70082 7.78224H8.49563C8.47093 7.78224 8.46329 7.77107 8.46564 7.75226L8.50033 7.55942C8.50562 7.5312 8.53149 7.53237 8.53149 7.53237H8.74197L8.75314 7.46946C8.78489 7.28309 8.84721 7.14199 8.93952 7.04909C9.03241 6.95561 9.16469 6.90799 9.33225 6.90799C9.37459 6.90799 9.41692 6.91093 9.45807 6.91798C9.48923 6.92327 9.5198 6.93092 9.54979 6.93974C9.55626 6.94209 9.5739 6.95091 9.56684 6.97207L9.4957 7.16668C9.48982 7.18138 9.48571 7.1902 9.45572 7.18079C9.44808 7.17844 9.43691 7.1755 9.4081 7.16903C9.38752 7.16492 9.35989 7.16139 9.33167 7.16139C9.29815 7.16139 9.26464 7.1655 9.23231 7.1755C9.20291 7.1849 9.17645 7.20195 9.1547 7.22371C9.13177 7.24723 9.10414 7.28074 9.08944 7.32248C9.05534 7.42067 9.04182 7.52473 9.04064 7.53179H9.33696C9.36165 7.53179 9.36988 7.54296 9.36753 7.56177L9.33284 7.75461L9.33343 7.75402ZM10.6869 8.54891C10.6598 8.64004 10.6181 8.72 10.5622 8.78702C10.5064 8.85405 10.4352 8.90755 10.3517 8.94576C10.2682 8.98398 10.1695 9.00338 10.0584 9.00338C9.94723 9.00338 9.84846 8.98398 9.76439 8.94576C9.6809 8.90755 9.60976 8.85405 9.55391 8.78702C9.49805 8.72 9.45631 8.64004 9.42926 8.54891C9.40222 8.45837 9.3887 8.35959 9.3887 8.25435C9.3887 8.14911 9.40222 8.05034 9.42926 7.9598C9.45631 7.86867 9.49805 7.78871 9.55391 7.72169C9.60976 7.65466 9.6809 7.60057 9.76439 7.56177C9.84846 7.52297 9.94664 7.50298 10.0584 7.50298C10.1701 7.50298 10.2688 7.52297 10.3523 7.56177C10.4364 7.60057 10.5069 7.65466 10.5628 7.72169C10.6187 7.78871 10.6604 7.86867 10.6874 7.9598H10.6869C10.7133 8.05034 10.7268 8.1497 10.7268 8.25435C10.7268 8.35901 10.7133 8.45837 10.6869 8.54891ZM11.8233 7.57588V7.57176C11.8151 7.59705 11.7698 7.72404 11.7539 7.76637C11.7481 7.78224 11.7381 7.79342 11.7198 7.79165C11.7198 7.79165 11.6663 7.7793 11.6181 7.7793C11.5758 7.7793 11.5341 7.78518 11.4935 7.79694C11.4506 7.81046 11.4112 7.83398 11.3788 7.86573C11.3453 7.89866 11.3177 7.94451 11.2977 8.00213C11.2771 8.06034 11.2671 8.15264 11.2671 8.24554V8.9393C11.2671 8.95458 11.2548 8.96752 11.2389 8.96752H10.9955C10.9802 8.96752 10.9673 8.95517 10.9673 8.9393V7.55765C10.9673 7.54237 10.9785 7.52943 10.9938 7.52943H11.2313C11.2472 7.52943 11.2577 7.54178 11.2577 7.55765V7.67054C11.293 7.62233 11.3565 7.58058 11.4141 7.55471C11.4723 7.52885 11.537 7.50886 11.6534 7.5165C11.714 7.52003 11.7928 7.53708 11.8086 7.54296H11.8092C11.8222 7.54883 11.828 7.56353 11.8222 7.57647L11.8233 7.57588ZM12.9951 8.93048C12.8916 8.97163 12.7476 8.99985 12.607 8.99985C12.3695 8.99985 12.1873 8.93165 12.0661 8.79643C11.945 8.66179 11.8839 8.47777 11.8839 8.25083C11.8839 8.14559 11.8986 8.04623 11.9286 7.95568C11.9586 7.86456 12.0032 7.7846 12.062 7.71757C12.1208 7.65055 12.1949 7.59646 12.2825 7.55765C12.3701 7.51885 12.4724 7.49886 12.5876 7.49886C12.6652 7.49886 12.734 7.50356 12.7934 7.51238C12.8569 7.52179 12.941 7.54472 12.9763 7.55883C12.9827 7.56118 13.001 7.57 12.9933 7.59117C12.9674 7.66407 12.9498 7.71169 12.9257 7.77813C12.9157 7.80635 12.894 7.79694 12.894 7.79694C12.8034 7.76872 12.717 7.7552 12.6041 7.7552C12.4689 7.7552 12.3666 7.80106 12.3001 7.88925C12.2331 7.97861 12.1955 8.09503 12.1949 8.25024C12.1943 8.42074 12.2366 8.54656 12.3125 8.62475C12.3877 8.70295 12.4936 8.74234 12.6259 8.74234C12.6794 8.74234 12.7299 8.73881 12.7758 8.73176C12.821 8.7247 12.8634 8.71059 12.9034 8.6953C12.9034 8.6953 12.9292 8.68531 12.9386 8.71177L13.0062 8.89755C13.0151 8.92048 12.9951 8.92989 12.9951 8.92989V8.93048ZM14.3697 8.30609C14.3673 8.3302 14.3426 8.3302 14.3426 8.3302H13.4137C13.419 8.47071 13.4531 8.57007 13.5213 8.63827C13.5883 8.70471 13.6947 8.74763 13.8388 8.74763C14.0592 8.74822 14.1533 8.70353 14.2197 8.67884C14.2197 8.67884 14.2456 8.66944 14.2544 8.69472L14.315 8.86463C14.3273 8.89344 14.3173 8.90343 14.3073 8.90872C14.2497 8.94106 14.1086 9.00103 13.8405 9.00162C13.7106 9.00162 13.5971 8.98339 13.5036 8.94694C13.4096 8.91049 13.3314 8.85875 13.2702 8.79231C13.2091 8.72646 13.1638 8.64709 13.1356 8.55655C13.108 8.4666 13.0933 8.36724 13.0933 8.26023C13.0933 8.15323 13.1068 8.05563 13.1338 7.9645C13.1609 7.8722 13.2032 7.79165 13.2596 7.72345C13.3161 7.65525 13.3878 7.60057 13.4731 7.56059C13.5583 7.52061 13.6636 7.50121 13.7794 7.50121C13.8705 7.50121 13.961 7.51944 14.0451 7.5553C14.1033 7.58 14.1615 7.62527 14.2215 7.68935C14.2591 7.72992 14.3167 7.8187 14.3403 7.9063H14.3414C14.4008 8.11501 14.3702 8.29551 14.3691 8.3055L14.3697 8.30609Z" fill="#17A0DB"/>
</svg>
