<svg width="16" height="16" viewBox="0 0 16 16" fill="none" xmlns="http://www.w3.org/2000/svg">
<path d="M8.00035 9.99992C9.10492 9.99992 10.0003 9.10449 10.0003 7.99992C10.0003 6.89535 9.10492 5.99992 8.00035 5.99992C6.89578 5.99992 6.00035 6.89535 6.00035 7.99992C6.00035 9.10449 6.89578 9.99992 8.00035 9.99992Z" stroke="#090E13" stroke-width="1.4" stroke-linecap="round" stroke-linejoin="round"/>
<path d="M6.19307 12.914L6.5827 13.7903C6.69853 14.0511 6.88755 14.2728 7.12685 14.4283C7.36615 14.5839 7.64544 14.6666 7.93085 14.6666C8.21626 14.6666 8.49555 14.5839 8.73485 14.4283C8.97414 14.2728 9.16317 14.0511 9.279 13.7903L9.66862 12.914C9.80732 12.6031 10.0406 12.3438 10.3353 12.1733C10.6318 12.0022 10.9748 11.9294 11.3153 11.9651L12.2686 12.0666C12.5524 12.0966 12.8388 12.0436 13.0931 11.9141C13.3474 11.7846 13.5586 11.5841 13.7012 11.337C13.844 11.0899 13.912 10.8068 13.897 10.5218C13.882 10.2369 13.7847 9.96245 13.6168 9.73177L13.0523 8.95622C12.8513 8.67801 12.744 8.34313 12.7457 7.99992C12.7456 7.65764 12.854 7.32415 13.0553 7.04733L13.6197 6.27177C13.7877 6.04109 13.885 5.76663 13.9 5.4817C13.915 5.19677 13.847 4.91361 13.7042 4.66659C13.5616 4.41941 13.3503 4.21891 13.096 4.0894C12.8418 3.9599 12.5554 3.90694 12.2716 3.93696L11.3183 4.03844C10.9778 4.07419 10.6348 4.00133 10.3383 3.83029C10.043 3.65875 9.80964 3.39816 9.67159 3.08584L9.279 2.20955C9.16317 1.9487 8.97414 1.72706 8.73485 1.57152C8.49555 1.41597 8.21626 1.33321 7.93085 1.33325C7.64544 1.33321 7.36615 1.41597 7.12685 1.57152C6.88755 1.72706 6.69853 1.9487 6.5827 2.20955L6.19307 3.08584C6.05502 3.39816 5.82165 3.65875 5.5264 3.83029C5.22988 4.00133 4.88685 4.07419 4.5464 4.03844L3.59011 3.93696C3.30633 3.90694 3.01993 3.9599 2.76565 4.0894C2.51137 4.21891 2.30012 4.41941 2.15751 4.66659C2.01473 4.91361 1.9467 5.19677 1.96169 5.4817C1.97668 5.76663 2.07404 6.04109 2.24196 6.27177L2.8064 7.04733C3.0077 7.32415 3.11609 7.65764 3.11603 7.99992C3.11609 8.34219 3.0077 8.67569 2.8064 8.95251L2.24196 9.72807C2.07404 9.95875 1.97668 10.2332 1.96169 10.5181C1.9467 10.8031 2.01473 11.0862 2.15751 11.3333C2.30026 11.5803 2.51153 11.7807 2.76578 11.9102C3.02003 12.0397 3.30635 12.0927 3.59011 12.0629L4.54344 11.9614C4.88389 11.9256 5.22692 11.9985 5.52344 12.1695C5.81979 12.3406 6.05425 12.6012 6.19307 12.914Z" stroke="#090E13" stroke-width="1.4" stroke-linecap="round" stroke-linejoin="round"/>
</svg>
