<svg width="16" height="16" viewBox="0 0 16 16" fill="none" xmlns="http://www.w3.org/2000/svg">
<g clip-path="url(#clip0_618_2620)">
<path d="M7.99998 1.33325L9.34128 4.82064C9.52929 5.30946 9.62329 5.55387 9.76948 5.75946C9.89904 5.94167 10.0582 6.10086 10.2404 6.23042C10.446 6.3766 10.6904 6.47061 11.1793 6.65861L14.6666 7.99992L11.1793 9.34122C10.6904 9.52923 10.446 9.62323 10.2404 9.76942C10.0582 9.89898 9.89904 10.0582 9.76948 10.2404C9.6233 10.446 9.52929 10.6904 9.34128 11.1792L7.99998 14.6666L6.65868 11.1792C6.47067 10.6904 6.37666 10.446 6.23048 10.2404C6.10092 10.0582 5.94173 9.89898 5.75952 9.76942C5.55393 9.62323 5.30952 9.52923 4.8207 9.34122L1.33331 7.99992L4.8207 6.65861C5.30952 6.47061 5.55393 6.3766 5.75952 6.23042C5.94173 6.10086 6.10092 5.94166 6.23048 5.75946C6.37666 5.55387 6.47067 5.30946 6.65868 4.82064L7.99998 1.33325Z" stroke="#182734" stroke-width="1.4" stroke-linecap="round" stroke-linejoin="round"/>
</g>
<defs>
<clipPath id="clip0_618_2620">
<rect width="16" height="16" fill="white"/>
</clipPath>
</defs>
</svg>
