<svg width="16" height="16" viewBox="0 0 16 16" fill="none" xmlns="http://www.w3.org/2000/svg">
<path d="M7.99992 1.33337L9.34122 4.82076C9.52923 5.30958 9.62323 5.55399 9.76942 5.75958C9.89898 5.94179 10.0582 6.10098 10.2404 6.23054C10.446 6.37672 10.6904 6.47073 11.1792 6.65874L14.6666 8.00004L11.1792 9.34134C10.6904 9.52935 10.446 9.62336 10.2404 9.76954C10.0582 9.8991 9.89898 10.0583 9.76942 10.2405C9.62323 10.4461 9.52923 10.6905 9.34122 11.1793L7.99992 14.6667L6.65861 11.1793C6.47061 10.6905 6.3766 10.4461 6.23042 10.2405C6.10086 10.0583 5.94167 9.8991 5.75946 9.76954C5.55387 9.62336 5.30946 9.52935 4.82064 9.34134L1.33325 8.00004L4.82064 6.65874C5.30946 6.47073 5.55387 6.37673 5.75946 6.23054C5.94166 6.10098 6.10086 5.94179 6.23042 5.75958C6.3766 5.55399 6.47061 5.30958 6.65861 4.82076L7.99992 1.33337Z" stroke="#D02F55" stroke-width="1.4" stroke-linecap="round" stroke-linejoin="round"/>
</svg>
