<svg width="16" height="16" viewBox="0 0 16 16" fill="none" xmlns="http://www.w3.org/2000/svg">
<g clip-path="url(#clip0_1930_605)">
<path d="M1.5545 6.29695C1.13981 7.86649 1.31207 9.53341 2.03896 10.985C2.76585 12.4365 3.99742 13.573 5.50261 14.1811L6.87586 10.7822M5.09876 7.23338L1.56048 6.27446C1.94341 4.84535 2.79085 3.58423 3.96933 2.68972C5.14781 1.79521 6.59036 1.31812 8.0698 1.33362V5.00072M6.87586 10.7822C7.22302 10.9226 7.60245 10.9999 7.99994 10.9999C9.65679 10.9999 10.9999 9.65678 10.9999 7.99992C10.9999 6.34307 9.65679 4.99992 7.99994 4.99992C6.34308 4.99992 4.99994 6.34307 4.99994 7.99992C4.99994 9.25929 5.77594 10.3374 6.87586 10.7822ZM14.6667 7.99992C14.6667 11.6818 11.6819 14.6666 7.99999 14.6666C4.31809 14.6666 1.33332 11.6818 1.33332 7.99992C1.33332 4.31802 4.31809 1.33325 7.99999 1.33325C11.6819 1.33325 14.6667 4.31802 14.6667 7.99992Z" stroke="#5A6A72" stroke-width="1.4" stroke-linecap="round" stroke-linejoin="round"/>
</g>
<defs>
<clipPath id="clip0_1930_605">
<rect width="16" height="16" fill="white"/>
</clipPath>
</defs>
</svg>
