<svg width="16" height="16" viewBox="0 0 16 16" fill="none" xmlns="http://www.w3.org/2000/svg">
<path d="M14.362 4.73607C14.3717 4.87712 14.3717 5.01817 14.3717 5.16052C14.3717 9.49804 11.0697 14.5005 5.03173 14.5005V14.4979C3.2481 14.5005 1.50152 13.9896 0 13.0263C0.259354 13.0575 0.520008 13.0731 0.781312 13.0737C2.25944 13.075 3.69531 12.5791 4.85818 11.6658C3.4535 11.6392 2.22173 10.7233 1.79143 9.38624C2.28349 9.48114 2.79049 9.46164 3.27345 9.32969C1.74203 9.02028 0.64026 7.67476 0.64026 6.11214C0.64026 6.09784 0.64026 6.08419 0.64026 6.07054C1.09657 6.32469 1.60748 6.46574 2.13008 6.48134C0.687711 5.51738 0.243104 3.59855 1.11412 2.09832C2.78074 4.14911 5.23973 5.39583 7.87942 5.52778C7.61487 4.38766 7.97627 3.19294 8.82909 2.39148C10.1512 1.14866 12.2306 1.21236 13.4734 2.53383C14.2086 2.38888 14.9132 2.11912 15.558 1.73692C15.3129 2.49678 14.8001 3.14224 14.115 3.5524C14.7656 3.4757 15.4013 3.30149 16 3.03564C15.5593 3.69605 15.0042 4.27131 14.362 4.73607Z" fill="#1D9BF0"/>
</svg>
