<svg width="16" height="16" viewBox="0 0 16 16" fill="none" xmlns="http://www.w3.org/2000/svg">
<path d="M9.60113 7.16769H9.20231C9.19412 7.13515 9.18801 7.09742 9.18395 7.05458C9.17582 6.97121 9.17582 6.88724 9.18395 6.80387C9.18801 6.76113 9.19412 6.72343 9.20231 6.6907H10.1962V9.82786C10.1465 9.83649 10.0963 9.84258 10.0459 9.84611C9.99589 9.84993 9.94573 9.85195 9.89553 9.85217C9.84746 9.85186 9.7994 9.84984 9.75147 9.84611C9.70111 9.84255 9.65096 9.83643 9.60123 9.82777V7.16756V7.16762L9.60113 7.16769ZM13.0612 7.95663C13.0612 7.84244 13.0459 7.73341 13.0153 7.62936C12.9846 7.52548 12.9394 7.43479 12.8803 7.35728C12.8209 7.2799 12.7453 7.21767 12.6532 7.17081C12.5612 7.12393 12.4518 7.10045 12.325 7.10045C12.0755 7.10045 11.8843 7.17598 11.7514 7.32676C11.6185 7.47757 11.5377 7.68751 11.5091 7.95663H13.0613H13.0612ZM11.5029 8.40912C11.5111 8.75156 11.6001 9.00234 11.7698 9.16125C11.9395 9.32022 12.19 9.39984 12.5213 9.39984C12.8117 9.39984 13.0878 9.3488 13.3495 9.24689C13.3822 9.30804 13.4087 9.38245 13.4292 9.47011C13.4493 9.55545 13.4616 9.64242 13.466 9.72997C13.3311 9.78719 13.1827 9.82981 13.0213 9.85842C12.8596 9.88687 12.6807 9.90123 12.4845 9.90123C12.1981 9.90123 11.9527 9.86135 11.7483 9.78193C11.5437 9.70235 11.375 9.59023 11.2421 9.44558C11.1092 9.30089 11.012 9.12964 10.9507 8.93188C10.8894 8.73421 10.8586 8.51709 10.8586 8.28064C10.8586 8.04827 10.8882 7.83114 10.9476 7.6293C11.0068 7.42762 11.098 7.25228 11.2205 7.10348C11.3433 6.95462 11.4977 6.83644 11.6838 6.74879C11.8698 6.66113 12.0896 6.61724 12.3433 6.61724C12.56 6.61724 12.7502 6.65399 12.9139 6.72735C13.0774 6.80071 13.2144 6.90164 13.3249 7.03005C13.4353 7.1585 13.5191 7.31138 13.5764 7.48864C13.6336 7.66605 13.6624 7.85864 13.6624 8.06661C13.6624 8.1237 13.6602 8.1838 13.6561 8.24695C13.6528 8.30102 13.6487 8.35503 13.6439 8.40899H11.5028L11.5029 8.40909L11.5029 8.40912ZM14.3314 6.6907C14.3741 6.68297 14.4171 6.67687 14.4603 6.67239C14.5011 6.6684 14.5441 6.66633 14.5891 6.66633C14.6341 6.66633 14.679 6.6684 14.7241 6.67239C14.769 6.67654 14.81 6.68266 14.8468 6.6907C14.859 6.75188 14.8713 6.83248 14.8835 6.93226C14.8957 7.03216 14.902 7.11668 14.902 7.18603C14.9878 7.04747 15.1013 6.92712 15.2424 6.82518C15.3835 6.72333 15.5645 6.6723 15.7853 6.6723C15.818 6.6723 15.8517 6.67338 15.8865 6.67542C15.9163 6.67702 15.946 6.68002 15.9755 6.68451C15.9836 6.72126 15.9899 6.76004 15.9939 6.80075C15.998 6.84148 16 6.88432 16 6.92913C16 6.97809 15.997 7.0291 15.9908 7.08198C15.9849 7.1331 15.9778 7.18406 15.9694 7.23483C15.9363 7.2267 15.9023 7.2226 15.8681 7.22261H15.7852C15.6748 7.22261 15.5695 7.23793 15.4693 7.26845C15.369 7.29907 15.2791 7.35311 15.1994 7.43049C15.1197 7.508 15.0562 7.61402 15.0093 7.74856C14.9621 7.88311 14.9387 8.05637 14.9387 8.26832V9.82777C14.8889 9.83638 14.8387 9.84254 14.7883 9.84608C14.7332 9.85016 14.6831 9.85214 14.6381 9.85214C14.5879 9.85194 14.5378 9.84992 14.4878 9.84608C14.4354 9.84228 14.3831 9.83618 14.3313 9.8278V6.69073L14.3314 6.6907ZM10.0257 5.0156C10.0257 5.08879 10.0124 5.16139 9.98654 5.22988C9.9178 5.25568 9.84495 5.26891 9.7715 5.26893H9.77061C9.69715 5.26893 9.6243 5.25572 9.55556 5.22992C9.52964 5.16141 9.51636 5.08879 9.51636 5.01557V5.01461C9.51636 4.93917 9.53025 4.86693 9.5554 4.80026C9.62416 4.77442 9.69703 4.76121 9.77051 4.76125H9.77134C9.84705 4.76125 9.9195 4.7751 9.98638 4.80026C10.0123 4.86877 10.0256 4.94139 10.0255 5.01461V5.01557H10.0256L10.0257 5.0156ZM10.7753 4.84591H10.1809L10.6012 4.42694C10.5351 4.33442 10.4539 4.25357 10.3611 4.18771L9.94075 4.60668V4.01413C9.88486 4.00476 9.82828 4.00003 9.7716 4H9.77051C9.71284 4 9.65637 4.00491 9.60132 4.01413V4.60668L9.18087 4.18768C9.13457 4.22053 9.09111 4.25719 9.05095 4.29728L9.05076 4.29747C9.0106 4.33753 8.97386 4.38085 8.9409 4.42697L9.36135 4.84591H8.76679C8.76679 4.84591 8.75265 4.95723 8.75265 5.01477V5.01547C8.75265 5.07301 8.75754 5.12941 8.76682 5.1843H9.36139L8.94087 5.60321C9.00701 5.69571 9.08815 5.77658 9.18097 5.8425L9.60136 5.42356V6.01614C9.65633 6.02533 9.71272 6.03018 9.77032 6.03024H9.77176C9.82837 6.03019 9.88488 6.02547 9.94072 6.01614V5.42356L10.3611 5.84259C10.4074 5.80971 10.4509 5.77305 10.4912 5.73299H10.4913C10.5314 5.69289 10.5681 5.64955 10.6011 5.6034L10.1808 5.18433H10.7753C10.7846 5.12947 10.7894 5.07327 10.7894 5.01585V5.01439C10.7894 4.95793 10.7847 4.90163 10.7753 4.84597V4.84591H10.7753ZM0 9.74228L1.65646 7.17381H0.19629C0.184065 7.10045 0.177953 7.01898 0.177953 6.92926C0.177953 6.84368 0.184161 6.7641 0.196418 6.69067H2.55836L2.58908 6.77032L0.920359 9.34478H2.48472C2.49698 9.42634 2.50316 9.50985 2.50316 9.59543C2.50316 9.67709 2.49701 9.7545 2.48476 9.82786H0.0307202L0 9.74219V9.74228ZM4.77911 8.35403C4.71777 8.34596 4.64004 8.33789 4.54599 8.32963C4.45191 8.32156 4.37216 8.31741 4.30682 8.31741C4.05318 8.31741 3.85993 8.3643 3.7271 8.45808C3.59408 8.55192 3.52774 8.69453 3.52774 8.88614C3.52774 9.00843 3.55014 9.10425 3.59516 9.17353C3.64009 9.24294 3.69638 9.29582 3.76387 9.33254C3.83139 9.36922 3.90595 9.39167 3.98771 9.39984C4.06947 9.40797 4.14723 9.41202 4.22083 9.41202C4.31491 9.41202 4.41204 9.40692 4.51226 9.39671C4.61242 9.3866 4.70138 9.37126 4.77914 9.35088V8.35403H4.77911ZM4.77911 7.76094C4.77911 7.52031 4.71777 7.35317 4.59511 7.25939C4.47236 7.16561 4.29447 7.11873 4.06134 7.11873C3.91808 7.11873 3.78422 7.13002 3.65952 7.15241C3.53611 7.17449 3.41418 7.20407 3.29439 7.24099C3.21663 7.10645 3.17791 6.94553 3.17791 6.75788C3.31679 6.71309 3.47014 6.67845 3.63792 6.65399C3.8056 6.62949 3.96714 6.61724 4.12262 6.61724C4.53159 6.61724 4.84241 6.71006 5.05511 6.89554C5.26772 7.08118 5.37415 7.37773 5.37415 7.78534V9.74834C5.23092 9.78094 5.05716 9.81456 4.85268 9.84923C4.64592 9.88403 4.4366 9.90143 4.22691 9.90123C4.02653 9.90123 3.84547 9.88295 3.684 9.84624C3.5224 9.80946 3.38537 9.75048 3.27292 9.66883C3.16035 9.58736 3.07356 9.48338 3.01212 9.35703C2.95081 9.23062 2.92012 9.07777 2.92012 8.89835C2.92012 8.72311 2.9559 8.56918 3.02748 8.43661C3.09782 8.30564 3.19757 8.19263 3.31894 8.10642C3.44163 8.01889 3.58272 7.95357 3.74224 7.91082C3.90179 7.86799 4.06941 7.84655 4.24528 7.84655C4.37616 7.84655 4.48352 7.84968 4.5674 7.8558C4.65117 7.86186 4.72177 7.86901 4.77905 7.87717V7.76097L4.77911 7.76094ZM6.64408 9.31407C6.72154 9.34259 6.80172 9.36309 6.88338 9.37525C6.96518 9.38753 7.07142 9.39362 7.20243 9.39362C7.34963 9.39362 7.48454 9.37024 7.60723 9.32335C7.72998 9.27656 7.83526 9.20412 7.9232 9.10623C8.01114 9.00843 8.08064 8.88518 8.13178 8.73622C8.18288 8.58752 8.20851 8.41125 8.20851 8.20731C8.20851 7.88119 8.1481 7.62232 8.02752 7.43068C7.90678 7.23911 7.70944 7.14329 7.43552 7.14329C7.33327 7.14329 7.23503 7.1616 7.14111 7.19834C7.0469 7.23502 6.96313 7.29008 6.88949 7.36344C6.81589 7.4368 6.7566 7.52962 6.71164 7.64171C6.66652 7.75392 6.64412 7.88732 6.64412 8.04227V9.31416V9.3141L6.64408 9.31407ZM6.03672 6.69064C6.07832 6.68247 6.12024 6.67638 6.16248 6.67233C6.20634 6.66828 6.25037 6.66626 6.29442 6.66627C6.33519 6.66627 6.3781 6.66837 6.42319 6.67233C6.46812 6.67647 6.51106 6.68263 6.55202 6.69067C6.55605 6.69896 6.56124 6.72432 6.56738 6.76716C6.57346 6.81 6.5796 6.85583 6.58578 6.9047C6.59192 6.95366 6.59804 7.00064 6.60418 7.04536C6.61032 7.09027 6.6134 7.11882 6.6134 7.13104C6.6542 7.06587 6.70332 7.00262 6.7606 6.94147C6.81788 6.8803 6.88646 6.82527 6.9662 6.77641C7.04594 6.72745 7.13586 6.68876 7.23612 6.66018C7.33628 6.63166 7.44774 6.61727 7.57046 6.61727C7.75446 6.61727 7.92525 6.64789 8.08278 6.70907C8.24016 6.77032 8.37504 6.86495 8.48759 6.9934C8.6 7.12185 8.68791 7.28494 8.75137 7.48261C8.81473 7.6805 8.84641 7.91385 8.84641 8.18287C8.84641 8.72097 8.70017 9.14201 8.40768 9.44567C8.1152 9.74943 7.70121 9.90123 7.16543 9.90123C7.07542 9.90123 6.98345 9.8951 6.88937 9.88289C6.79522 9.8706 6.71349 9.85427 6.64393 9.83399V11.2711C6.5921 11.2795 6.53994 11.2856 6.48757 11.2894C6.43231 11.2934 6.38216 11.2955 6.33717 11.2955C6.28702 11.2953 6.2369 11.2932 6.1869 11.2894C6.13653 11.2859 6.08637 11.2797 6.03662 11.2711V6.69067L6.03672 6.69064Z" fill="#FF4A00"/>
</svg>
